<svg xmlns="http://www.w3.org/2000/svg" version="1.1" xmlns:xlink="http://www.w3.org/1999/xlink" xmlns:svgjs="http://svgjs.dev/svgjs" width="39" height="56"><svg xmlns="http://www.w3.org/2000/svg" fill="none" viewBox="0 0 39 56"><path stroke="#7EB693" stroke-miterlimit="10" stroke-width="2" d="M1.85 42.068h34.881M5.791 48.5h27M18.791 1.5v14M18.866 14.784v26.432M29.925 4.553l-11.06 11.084M34.18 8.816 18.865 24.163M36.731 15.637 18.866 32.689M37.582 23.31 18.866 42.07M37.582 31.837 27.373 42.069M1 31.837l10.209 10.232M8.657 4.553l10.209 11.084M4.403 8.816l14.463 15.347M1.85 14.784 18.866 32.69M1 22.458l17.866 18.758M19.291 54.858C9.191 54.858 1 46.406 1 35.978V20.022C1 9.596 9.19 1.143 19.291 1.143c10.103 0 18.291 8.453 18.291 18.88v15.954c.002 10.429-8.188 18.88-18.291 18.88Z"></path></svg><style>@media (prefers-color-scheme: light) { :root { filter: none; } }
@media (prefers-color-scheme: dark) { :root { filter: none; } }
</style></svg>