<svg xmlns="http://www.w3.org/2000/svg" fill="none" viewBox="0 0 57 56"><circle cx="28.791" cy="28" r="28" fill="#274C5B"/><path fill="#fff" stroke="#fff" stroke-linecap="round" stroke-linejoin="round" stroke-width="1.5" d="M25.569 39a1.222 1.222 0 1 0 0-2.444 1.222 1.222 0 0 0 0 2.444ZM34.125 39a1.222 1.222 0 1 0 0-2.444 1.222 1.222 0 0 0 0 2.444Z"/><path stroke="#fff" stroke-linecap="round" stroke-linejoin="round" stroke-width="2" d="M15.791 17h3.782l2.836 16.073h15.128"/><path stroke="#fff" stroke-linecap="round" stroke-linejoin="round" stroke-width="2" d="m21.902 29.184 15.247.107a.473.473 0 0 0 .464-.38l1.702-8.51a.471.471 0 0 0-.464-.565H20.358"/></svg>