<svg xmlns="http://www.w3.org/2000/svg" fill="none" viewBox="0 0 60 61"><circle cx="30" cy="30.716" r="30" fill="#EFF6F1"/><path fill="#274C5B" d="M33.658 23.263a4.109 4.109 0 0 1 2.838 1.137 3.81 3.81 0 0 1 1.18 2.732v7.736a3.81 3.81 0 0 1-1.18 2.733 4.109 4.109 0 0 1-2.838 1.136h-8.034a4.109 4.109 0 0 1-2.837-1.136 3.809 3.809 0 0 1-1.18-2.733v-7.736a3.809 3.809 0 0 1 1.18-2.732 4.109 4.109 0 0 1 2.837-1.137h8.034Zm0-1.547h-8.034c-3.093 0-5.624 2.437-5.624 5.416v7.736c0 2.98 2.53 5.416 5.624 5.416h8.034c3.094 0 5.625-2.437 5.625-5.416v-7.736c0-2.979-2.531-5.416-5.625-5.416Z"/><path fill="#274C5B" d="M34.864 27.133c-.239 0-.472-.069-.67-.196a1.171 1.171 0 0 1-.444-.52 1.12 1.12 0 0 1-.068-.671c.046-.226.161-.432.33-.595a1.22 1.22 0 0 1 .617-.317c.233-.045.476-.022.696.066.22.088.408.237.54.427a1.13 1.13 0 0 1-.148 1.466 1.244 1.244 0 0 1-.853.34Zm-5.222.773c.635 0 1.257.181 1.785.522.529.34.94.823 1.184 1.389.243.565.307 1.187.183 1.788-.124.6-.43 1.152-.88 1.584a3.254 3.254 0 0 1-1.646.847 3.33 3.33 0 0 1-1.856-.176 3.192 3.192 0 0 1-1.443-1.14 3.014 3.014 0 0 1-.541-1.72c0-.82.34-1.606.942-2.186a3.281 3.281 0 0 1 2.271-.908Zm0-1.547c-.954 0-1.886.272-2.679.782a4.684 4.684 0 0 0-1.775 2.084 4.482 4.482 0 0 0-.275 2.682c.186.9.646 1.727 1.32 2.376a4.88 4.88 0 0 0 2.468 1.27c.935.18 1.904.088 2.785-.263a4.786 4.786 0 0 0 2.164-1.71 4.52 4.52 0 0 0 .812-2.58 4.557 4.557 0 0 0-1.412-3.282 4.917 4.917 0 0 0-3.408-1.36Z"/></svg>