<svg xmlns="http://www.w3.org/2000/svg" fill="none" viewBox="0 0 60 61"><circle cx="30" cy="30.716" r="30" fill="#EFF6F1"/><path fill="#274C5B" d="M40.66 24.674a8.686 8.686 0 0 1-2.434.659 4.197 4.197 0 0 0 1.865-2.307 8.51 8.51 0 0 1-2.693 1.011 4.266 4.266 0 0 0-3.095-1.321c-2.342 0-4.238 1.868-4.238 4.17-.001.32.035.64.11.952a12.082 12.082 0 0 1-8.738-4.36 4.12 4.12 0 0 0-.576 2.096 4.16 4.16 0 0 0 1.894 3.473 4.197 4.197 0 0 1-1.928-.52v.051c0 2.023 1.464 3.706 3.4 4.09-.364.096-.739.145-1.116.145-.267.001-.534-.025-.797-.077.539 1.657 2.106 2.862 3.962 2.897A8.59 8.59 0 0 1 20 37.359a11.996 11.996 0 0 0 6.488 1.885c7.806 0 12.07-6.357 12.07-11.871 0-.18-.004-.362-.013-.538a8.54 8.54 0 0 0 2.115-2.16Z"/></svg>